<?xml version="1.0" encoding="UTF-8" standalone="no"?>
<!-- Created with Inkscape (http://www.inkscape.org/) -->

<svg
   width="84.908012mm"
   height="103.2616mm"
   viewBox="0 0 84.908012 103.2616"
   version="1.1"
   id="svg1"
   xml:space="preserve"
   inkscape:version="1.3 (0e150ed6c4, 2023-07-21)"
   sodipodi:docname="Nuts.svg"
   xmlns:inkscape="http://www.inkscape.org/namespaces/inkscape"
   xmlns:sodipodi="http://sodipodi.sourceforge.net/DTD/sodipodi-0.dtd"
   xmlns="http://www.w3.org/2000/svg"
   xmlns:svg="http://www.w3.org/2000/svg"><sodipodi:namedview
     id="namedview1"
     pagecolor="#ffffff"
     bordercolor="#000000"
     borderopacity="0.25"
     inkscape:showpageshadow="2"
     inkscape:pageopacity="0.0"
     inkscape:pagecheckerboard="0"
     inkscape:deskcolor="#d1d1d1"
     inkscape:document-units="mm"
     inkscape:zoom="1.0449705"
     inkscape:cx="-35.886179"
     inkscape:cy="690.45009"
     inkscape:window-width="2560"
     inkscape:window-height="1369"
     inkscape:window-x="-8"
     inkscape:window-y="-8"
     inkscape:window-maximized="1"
     inkscape:current-layer="layer1" /><defs
     id="defs1" /><g
     inkscape:label="Ebene 1"
     inkscape:groupmode="layer"
     id="layer1"
     transform="translate(-14.190938,-17.492885)"><g
       id="g74"
       transform="translate(-38.905145,-71.907928)"><g
         id="g75"
         transform="translate(-77.323842,-85.798042)"><g
           id="g76"
           transform="translate(-1.2110178,-0.08734844)"><g
             id="g36"
             transform="matrix(0.97489844,0,0,0.9704857,-97.054039,93.752508)"><g
               id="g35"><path
                 id="path1-9-2"
                 style="fill:#98521f;fill-opacity:1;stroke:#44240e;stroke-width:2.1;stroke-linecap:round;stroke-linejoin:round;stroke-dasharray:none;stroke-opacity:1"
                 inkscape:transform-center-x="-27.973024"
                 inkscape:transform-center-y="-29.780622"
                 d="m 120.6638,198.35959 c 1.61133,22.91924 4.10127,19.81883 11.23869,27.97474 7.13742,8.15591 16.99768,13.2004 27.88899,13.20029 3.79795,-8.43155 2.69518,-12.66957 0.0877,-20.96944 -1.89857,-6.0433 8.60486,-16.00722 0.19291,-30.61782 -5.33196,-9.26103 -2.26507,-21.79463 0.19291,-30.11464 2.50079,-8.46487 -0.54529,-5.11613 0.0877,-19.45989 -2.77455,3.09875 -14.25001,12.20569 -14.25001,12.20569 -9.16671,7.04551 -11.15493,7.59062 -16.52674,13.75392 -5.98566,6.86758 -5.59752,10.28824 -8.68835,25.29908 0,0 -0.35807,3.2581 -0.35807,4.34166 0,1.08355 0.13427,4.38641 0.13427,4.38641 z"
                 sodipodi:nodetypes="cscsssccsczc" /><path
                 id="path1-9-2-0"
                 style="fill:#b26b2b;fill-opacity:1;stroke:none;stroke-width:1.37127;stroke-dasharray:none;stroke-opacity:1"
                 inkscape:transform-center-x="-19.873055"
                 inkscape:transform-center-y="-24.328379"
                 d="m 123.45651,194.75916 c -0.5763,15.6354 8.48109,31.51401 21.73529,35.91422 3.35737,2.13469 7.61151,-0.90502 7.69185,-5.2513 0.94238,-6.25422 -1.9364,-12.43399 -0.58654,-18.68211 0.54087,-2.78975 2.1706,-5.43929 1.38511,-8.40618 -1.11029,-8.75605 -5.282,-17.17981 -3.78127,-26.22638 1.08492,-4.36871 3.18021,-8.59918 2.6911,-13.2925 0.21315,-3.1471 -2.29449,-8.10217 -5.36788,-5.84038 -2.49597,2.46867 -4.71851,5.2829 -7.3785,7.53816 -7.30187,7.04591 -14.20063,15.86423 -16.03216,26.96985 -0.39381,2.39353 -0.53181,4.84714 -0.357,7.27662 z" /><path
                 id="path1-9-2-0-3"
                 style="fill:#c97e3a;fill-opacity:1;stroke:none;stroke-width:0.988154;stroke-dasharray:none;stroke-opacity:1"
                 inkscape:transform-center-x="-12.446682"
                 inkscape:transform-center-y="-20.170965"
                 d="m 128.84987,195.99398 c -0.36094,12.9635 5.31179,26.12866 13.61302,29.77692 2.10276,1.76991 4.76717,-0.75036 4.81748,-4.35392 0.59022,-5.18544 -1.21278,-10.30917 -0.36735,-15.48956 0.33875,-2.31303 1.35946,-4.50979 0.8675,-6.96968 -0.69538,-7.25975 -3.30816,-14.24399 -2.36824,-21.74463 0.6795,-3.62214 1.9918,-7.12969 1.68546,-11.02097 0.1335,-2.6093 -1.43706,-6.71761 -3.36195,-4.84233 -1.56325,2.0468 -2.95525,4.3801 -4.62123,6.24999 -4.57323,5.84185 -8.89399,13.15323 -10.04109,22.36104 -0.24665,1.9845 -0.33308,4.01881 -0.2236,6.03314 z" /><path
                 id="path1-9-4-3-6"
                 style="fill:#b26b2b;fill-opacity:1;stroke:none;stroke-width:2.1;stroke-linecap:round;stroke-linejoin:round;stroke-dasharray:none;stroke-opacity:1"
                 inkscape:transform-center-x="27.973024"
                 inkscape:transform-center-y="-29.780622"
                 d="m 154.9878,147.50059 c 0.51348,4.69442 1.05388,4.41212 0.4712,10.66732 -1.38376,14.85487 -5.52471,20.85342 -0.19275,30.11444 8.41194,14.61059 -1.19613,24.57448 0.70244,30.61776 2.26921,7.22313 1.78375,11.5515 -0.46464,18.06323 0.48867,0.97925 2.33448,0.71286 2.73371,0.83557 0.41361,0.20677 4.36788,-9.11375 1.49629,-14.86988 -4.75625,-9.53393 2.62652,-6.62168 0.55947,-29.12751 -0.59967,-6.52922 -8.51218,-3.73549 -2.22914,-36.81894 0.71106,-3.7441 1.19736,-10.53018 -0.1979,-13.03335 z"
                 sodipodi:nodetypes="csssccssscc" /><path
                 style="fill:#44240e;fill-opacity:0.596639;stroke:none;stroke-width:2.1;stroke-linecap:round;stroke-linejoin:round;stroke-dasharray:none;stroke-opacity:1"
                 id="path13"
                 d="m 148.86819,154.14889 c -1.30427,1.28787 -2.67155,2.51011 -4.04037,3.72848 -1.30599,1.14897 -2.63961,2.26581 -3.96139,3.39644 -1.34464,1.16499 -2.64303,2.38313 -3.90698,3.63492 -1.17219,1.14796 -2.19772,2.43383 -3.1696,3.7524 -0.82178,1.12826 -1.50229,2.34605 -2.11052,3.59958 -0.53606,1.14812 -0.94933,2.34691 -1.34508,3.54885 -0.33739,0.97809 -0.56568,1.9869 -0.76642,3.00021 -0.17168,0.95571 -0.41213,1.89618 -0.66923,2.83182 -0.24574,0.93322 -0.53462,1.85246 -0.88269,2.7524 -0.39142,0.9501 -0.79333,1.89586 -1.19279,2.84263 -0.45146,1.07188 -1.0816,4.75487 -0.71849,4.96452 0.36312,0.20965 2.29825,-3.90654 2.29825,-3.90654 0.40759,-0.94483 0.8056,-1.89371 1.2009,-2.84375 0.36108,-0.90304 0.65305,-1.82726 0.89145,-2.77048 0.26191,-0.93779 0.5164,-1.87883 0.6861,-2.83859 0.19386,-1.01014 0.40261,-2.01867 0.73072,-2.99565 0.38561,-1.19715 0.79726,-2.3883 1.32648,-3.53096 0.59537,-1.24765 1.26131,-2.46132 2.07114,-3.58491 0.95977,-1.31618 1.97448,-2.59611 3.14055,-3.73789 1.25447,-1.25491 2.54723,-2.47286 3.89816,-3.62389 1.32459,-1.12795 2.65265,-2.25205 3.95367,-3.40727 1.36788,-1.22605 2.74615,-2.44294 4.0569,-3.73045 0.62753,-0.0574 13.54746,-16.25809 -1.49076,-1.08187 z"
                 sodipodi:nodetypes="ccccccccccczcccccccccccc" /><path
                 style="fill:#44240e;fill-opacity:0.596639;stroke:none;stroke-width:2.1;stroke-linecap:round;stroke-linejoin:round;stroke-dasharray:none;stroke-opacity:1"
                 id="path14"
                 d="m 152.60311,160.59399 c -0.45456,0.56239 -1.54769,2.00535 -1.9848,2.5824 -0.70644,0.95751 -1.25817,2.0313 -1.60504,3.17096 -0.0825,0.27095 -0.14444,0.54772 -0.21665,0.82158 -0.25502,1.1309 -0.35685,2.28693 -0.51552,3.43302 -0.10936,0.78988 -0.13291,0.87731 -0.27264,1.65801 -0.25732,1.2229 -0.48926,2.45976 -0.91914,3.63727 -0.0854,0.23389 -0.18467,0.46246 -0.277,0.69369 0,0 -2.25442,8.09781 -1.55264,7.71112 0.70178,-0.38669 3.41938,-7.41405 3.62323,-8.07738 0.29895,-0.97284 0.47428,-1.9778 0.6827,-2.97219 0.13831,-0.77526 0.16563,-0.8845 0.27377,-1.66843 0.15703,-1.13831 0.25244,-2.28708 0.50526,-3.41044 0.0715,-0.26856 0.13249,-0.54013 0.21441,-0.80569 0.34513,-1.11882 0.90117,-2.16508 1.607,-3.09695 0.95014,-1.62115 3.31591,-9.60803 0.43706,-3.67697 z"
                 sodipodi:nodetypes="ccscscsczscscscc" /><path
                 style="fill:#44240e;fill-opacity:0.596639;stroke:none;stroke-width:2.1;stroke-linecap:round;stroke-linejoin:round;stroke-dasharray:none;stroke-opacity:1"
                 id="path16"
                 d="m 152.40245,232.56356 c -0.82462,-1.60985 -0.8014,-1.50072 -1.27281,-2.20449 -0.7419,-1.08169 -1.73042,-1.94552 -2.72322,-2.78747 -0.86155,-0.76015 -1.82976,-1.39868 -2.66505,-2.18934 -0.1756,-0.16622 -0.33774,-0.34611 -0.50661,-0.51916 -0.67132,-0.73602 -1.12038,-1.62837 -1.30166,-2.60958 -0.112,-0.60627 -0.0801,-0.77759 -0.0717,-1.386 0.0745,-1.30024 0.44905,-2.54707 0.82101,-3.78598 0.29103,-0.96506 0.55623,-1.9398 0.71704,-2.93608 0.10642,-0.65932 0.13148,-0.99804 0.20008,-1.66452 0.20609,-1.01983 -0.0102,-2.05262 -0.73598,-4.82703 -4.21747,-16.12197 -0.79299,0.30533 -0.69281,2.36984 -0.0701,0.67605 -0.22568,2.45581 -0.33442,3.12375 -0.16084,0.9876 -0.42657,1.95328 -0.72243,2.90796 -0.38595,1.25296 -0.77518,2.5114 -0.84665,3.83067 -0.0166,0.62077 -0.051,0.81045 0.0518,1.43062 0.1221,0.73671 0.39012,1.47691 0.7973,2.10528 0.13522,0.20866 0.30472,0.39298 0.45708,0.58947 0.16452,0.17705 0.3209,0.36203 0.49356,0.53116 0.8223,0.8055 1.8022,1.43358 2.66414,2.19313 0.98729,0.82858 1.97674,1.67251 2.72796,2.73148 0,0 2.40092,3.39738 2.94333,3.09629 0.54241,-0.30109 4e-5,0 4e-5,0 z"
                 sodipodi:nodetypes="sccscsccscsccccsscscczs" /><path
                 style="fill:#44240e;fill-opacity:0.596639;stroke:none;stroke-width:2.1;stroke-linecap:round;stroke-linejoin:round;stroke-dasharray:none;stroke-opacity:1"
                 id="path17"
                 d="m 141.61729,189.39098 c -0.35297,-1.26641 -1.3133,3.23778 -1.57838,4.06676 -0.0688,0.21517 -0.15425,0.42466 -0.23138,0.637 -0.39369,1.05202 -1.02572,1.99644 -1.43329,3.04167 -0.0785,0.20142 -0.14006,0.40907 -0.21009,0.61361 -0.36073,1.37276 -0.40972,2.80111 -0.4896,4.21125 -0.39826,7.24532 -0.1675,6.72388 -0.21605,10.55937 -0.0992,7.83839 1.74033,-8.18185 1.80918,-9.57157 0.13878,-3.14737 1.04087,-4.77581 2.34826,-8.4633 0.6537,-1.84376 0.42721,-1.70667 0.44503,-2.58551 0,0 -0.0907,-1.24287 -0.44368,-2.50928 z"
                 sodipodi:nodetypes="zscsccscscz" /><path
                 style="fill:#44240e;fill-opacity:0.596639;stroke:none;stroke-width:2.1;stroke-linecap:round;stroke-linejoin:round;stroke-dasharray:none;stroke-opacity:1"
                 id="path18"
                 d="m 132.39906,195.01154 c -0.33423,-0.19296 -1.9633,5.72888 -2.23661,6.39885 -0.40488,1.02224 -0.66137,2.10597 -0.76067,3.20142 -0.0224,0.24649 -0.0289,0.49416 -0.0433,0.74124 -0.0191,0.98567 0.0887,1.96959 0.3208,2.92757 0.12984,0.5359 0.24724,0.88111 0.41154,1.40623 0.46535,1.37187 1.15189,2.65021 1.82378,3.92838 0.68451,1.24024 1.23998,2.54123 1.75254,3.85975 0,0 4.31861,6.09335 4.72726,5.88521 0.40864,-0.20813 -2.67365,-3.84009 -3.09725,-4.96746 -0.51174,-1.32366 -1.05485,-2.63593 -1.7437,-3.87945 -0.67146,-1.27164 -1.36192,-2.54049 -1.84196,-3.90049 -0.15762,-0.49049 -0.29513,-0.89207 -0.42183,-1.39213 -0.23878,-0.94237 -0.35627,-1.91209 -0.3467,-2.88435 0.0131,-0.24316 0.0185,-0.48686 0.0394,-0.72947 0.0928,-1.07725 0.35309,-2.13833 0.76307,-3.13826 0.71549,-1.2027 1.03417,-7.23733 0.65363,-7.45704 z"
                 sodipodi:nodetypes="scccsccczcccscscs" /></g><path
               style="fill:#44240e;fill-opacity:0.596639;stroke:none;stroke-width:2.1;stroke-linecap:round;stroke-linejoin:round;stroke-dasharray:none;stroke-opacity:1"
               id="path15"
               d="m 153.02363,186.09489 c -2.21202,-2.03796 3.32306,5.76185 3.52068,6.19472 0.4414,1.04135 0.65404,2.15314 0.80659,3.26772 0.18347,1.47884 0.074,2.9679 -0.0911,4.44204 -0.13192,1.07174 -0.32409,2.13458 -0.49384,3.20061 -0.0409,0.2569 -0.0883,0.51298 -0.11842,0.77136 -0.0306,0.26222 -0.0423,0.52628 -0.0634,0.78942 -0.20256,3.8489 -1.31345,12.93871 -0.81244,12.17941 0.52089,-0.78942 2.36147,-10.10185 2.38722,-11.19766 0.0191,-0.25914 0.0286,-0.51916 0.0571,-0.77742 0.0286,-0.25836 0.0745,-0.51451 0.11425,-0.77139 0.16542,-1.069 0.35854,-2.13378 0.50055,-3.20636 0.17956,-1.48221 0.29306,-2.98004 0.13192,-4.4703 -0.13355,-1.1174 -0.32696,-2.23179 -0.73402,-3.28659 0,0 -2.99307,-5.0976 -5.20509,-7.13556 z"
               sodipodi:nodetypes="zcccsscsccscccz" /></g><g
             id="g34"
             transform="matrix(0.97489844,0,0,0.9704857,14.886487,43.370474)"><path
               id="path1-9-4"
               style="fill:#98521f;fill-opacity:1;stroke:#44240e;stroke-width:2.1;stroke-linecap:round;stroke-linejoin:round;stroke-dasharray:none;stroke-opacity:1"
               inkscape:transform-center-x="27.973024"
               inkscape:transform-center-y="-29.780622"
               d="m 164.69928,138.37284 c 0.18055,4.09145 -0.47415,6.71623 -1.42782,8.61343 0.51348,4.69442 1.53499,4.8215 -0.24495,10.84636 -2.45798,8.32001 -5.52471,20.85342 -0.19275,30.11444 8.41194,14.61059 -2.09132,24.57448 -0.19275,30.61776 2.26921,7.22313 3.39509,11.37246 1.1467,17.88419 0.48867,0.97925 0.98402,2.00056 1.47277,3.0856 21.78259,2.1e-4 39.44103,-20.17798 39.44101,-45.06909 -0.18104,-8.83405 -3.45234,-16.0141 -6.71922,-23.50882 -3.07158,-7.04668 -8.97132,-13.33291 -19.74937,-20.73649 0,0 -10.75907,-8.74863 -13.53362,-11.84738 z"
               sodipodi:nodetypes="ccssscccscc" /><path
               id="path1-9-4-3"
               style="fill:#b26b2b;fill-opacity:1;stroke:none;stroke-width:2.1;stroke-linecap:round;stroke-linejoin:round;stroke-dasharray:none;stroke-opacity:1"
               inkscape:transform-center-x="27.973024"
               inkscape:transform-center-y="-29.780622"
               d="m 164.68926,147.15372 c 0.51348,4.69442 1.53499,4.8215 -0.24495,10.84636 -2.45798,8.32001 -5.52471,20.85342 -0.19275,30.11444 8.41194,14.61059 -2.09132,24.57448 -0.19275,30.61776 2.26921,7.22313 3.39509,11.37246 1.1467,17.88419 0.48867,0.97925 0.72314,1.29473 1.12237,1.41744 0.41361,0.20677 5.97922,-9.69562 3.10763,-15.45175 -4.75625,-9.53393 2.98459,-8.1435 -0.0224,-32.08162 -0.81721,-6.50558 -8.35697,-8.04359 -1.64727,-33.86483 2.29144,-8.81827 -0.19018,-11.6044 -1.58544,-14.10757 z"
               sodipodi:nodetypes="csssccssscc" /><path
               style="fill:#44240e;fill-opacity:0.596639;stroke:none;stroke-width:2.1;stroke-linecap:round;stroke-linejoin:round;stroke-dasharray:none;stroke-opacity:1"
               id="path19"
               d="m 164.98722,167.77065 c 0.002,0.63141 -0.0528,1.26123 -0.10521,1.88993 -0.0841,0.82251 -0.13089,1.64714 -0.15844,2.47323 -0.0344,0.92106 0.045,1.84005 0.14608,2.75447 0.11633,0.85544 0.25678,1.70804 0.41702,2.55635 0.13621,1.01827 1.03113,3.00141 1.95132,4.29353 4.56518,6.41035 0.42702,-1.63986 -0.28723,-3.31737 -0.17031,-0.84591 -0.31576,-1.69754 -0.43902,-2.55151 -0.10467,-0.90403 -0.18756,-1.81271 -0.14912,-2.72398 0.0242,-0.82232 0.0602,-1.64411 0.15496,-2.46193 0.0618,-0.62812 0.12562,-1.25719 0.13974,-1.88856 -0.0489,-2.16833 -0.3632,-6.81362 -0.68942,-6.60539 -0.32622,0.20823 -0.84318,3.65784 -0.98068,5.58123 z"
               sodipodi:nodetypes="cccccsccccczc" /><path
               style="fill:#44240e;fill-opacity:0.596639;stroke:none;stroke-width:2.1;stroke-linecap:round;stroke-linejoin:round;stroke-dasharray:none;stroke-opacity:1"
               id="path20"
               d="m 170.01484,204.79668 c -0.0736,0.62262 -0.20746,1.23055 -0.34145,1.83631 -0.24049,0.88507 -0.52665,1.75681 -0.78285,2.63742 -0.28596,0.91848 -0.54947,1.84292 -0.78506,2.77554 -0.22379,0.95121 -0.40281,1.91261 -0.5061,2.8844 -0.0624,0.76753 -0.0387,1.54091 0.0543,2.30473 0.0858,0.45622 0.17351,0.90993 0.21647,1.37248 0.82329,12.82694 1.20448,5.31753 1.22605,4.76566 l 0.13427,-3.43527 c 0.0184,-0.47016 0.20024,-1.25411 0.0902,-1.71195 -0.11246,-0.75302 -0.1432,-1.51885 -0.0986,-2.27899 0.0895,-0.96538 0.26343,-1.91887 0.49023,-2.86149 0.22997,-0.93193 0.49188,-1.85456 0.77929,-2.77047 0.25703,-0.88213 0.53993,-1.75609 0.80514,-2.6357 0.0499,-0.20586 0.13586,-1.58411 0.11841,-2.69806 0.14951,-1.44112 -1.2433,-10.49071 -1.13683,-4.99572 0.0314,1.62132 -0.0571,2.8466 -0.26347,4.81111 z"
               sodipodi:nodetypes="cccccccssccccccsc" /><path
               style="fill:#44240e;fill-opacity:0.596639;stroke:none;stroke-width:2.1;stroke-linecap:round;stroke-linejoin:round;stroke-dasharray:none;stroke-opacity:1"
               id="path21"
               d="m 173.44416,156.6458 c 0.10416,2.28775 1.16879,4.61795 3.1823,7.02497 0.83719,0.95461 1.75897,1.82907 2.68623,2.69459 1.11457,1.0162 2.19196,2.07136 3.24682,3.14908 0.81135,0.85693 1.66449,1.68965 2.33718,2.6652 0.12098,0.17544 0.22942,0.35921 0.34413,0.53881 0.54494,0.93721 0.93452,1.95769 1.18762,3.01087 0.056,0.23284 0.0993,0.46852 0.14894,0.70278 0.29297,1.59224 0.38744,3.2114 0.51762,4.82259 0.0838,1.03321 0.22167,2.06329 0.45506,3.07403 0.13412,0.58085 0.20695,0.79487 0.37535,1.36254 0.35591,1.23241 0.91621,2.3751 1.51737,3.50198 2.60211,4.50699 0.84774,-0.32239 0.1071,-2.57102 -0.16422,-0.53209 -0.25854,-0.8096 -0.391,-1.35351 -0.24481,-1.00519 -0.39118,-2.03179 -0.48096,-3.06163 -0.13282,-1.61281 -0.22001,-3.23346 -0.48873,-4.83122 -0.0461,-0.23619 -0.0857,-0.47372 -0.13816,-0.70856 -0.2385,-1.0672 -0.61927,-2.10194 -1.15317,-3.05702 -0.31705,-0.51434 -0.35602,-0.60758 -0.72837,-1.08954 -0.59526,-0.7705 -1.28943,-1.4579 -1.9587,-2.16234 -1.04693,-1.07718 -2.11511,-2.13355 -3.22386,-3.1474 -0.92295,-0.85844 -1.83869,-1.72682 -2.68067,-2.66615 -0.72255,-0.85234 -1.41215,-1.73215 -2.02116,-2.67037 -0.29615,-0.46054 -0.57165,-0.93016 -0.81579,-1.42014 0,0 -2.05131,-4.38399 -2.02515,-3.80854 z"
               sodipodi:nodetypes="zcccscsccscccsccccscccccz" /><path
               style="fill:#44240e;fill-opacity:0.596639;stroke:none;stroke-width:2.1;stroke-linecap:round;stroke-linejoin:round;stroke-dasharray:none;stroke-opacity:1"
               id="path22"
               d="m 177.74272,178.01791 c -0.34933,-0.0621 -0.87559,6.69777 -1.07874,7.42855 -0.24007,0.93076 -0.47516,1.86908 -0.57143,2.82796 -0.062,0.61745 -0.0474,0.85212 -0.0483,1.46823 0.0371,1.16252 0.2987,2.29864 0.46326,3.4455 0.0374,0.26073 0.0663,0.52262 0.0995,0.78392 0.15505,1.45326 0.11125,2.9275 -0.0656,4.3774 -0.0363,0.29771 -0.0879,0.59334 -0.13189,0.89001 -0.22957,1.43111 -0.64396,2.8274 -0.85077,4.26247 -0.0363,0.2517 -0.0583,0.50523 -0.0875,0.75784 -0.0693,0.90329 -0.0652,1.81357 0.0402,2.71405 0.0491,0.4193 0.15467,1.04113 0.22116,1.45208 0.30262,1.7369 0.48268,3.49108 0.57784,5.25062 0.029,1.05225 -0.0269,2.10685 -0.1818,3.14848 -0.12339,0.82976 -0.26566,1.40576 -0.44639,2.22302 -1.87254,12.20007 1.23334,1.39597 1.50758,0.96956 v 0 c 0.15553,-0.70424 0.34705,-1.52229 0.46055,-2.23469 0.1664,-1.04439 0.23459,-2.10307 0.2208,-3.16004 -0.0128,-0.31696 -0.019,-0.63425 -0.0383,-0.95088 -0.0877,-1.44022 -0.2906,-2.87224 -0.49882,-4.29878 -0.20887,-1.36553 -0.40406,-2.73869 -0.28696,-4.12435 0.0251,-0.25107 0.0427,-0.503 0.0752,-0.75321 0.1876,-1.44089 0.59596,-2.84278 0.83641,-4.27434 0.0468,-0.29896 0.10238,-0.59667 0.14026,-0.89688 0.0371,-0.29371 0.0605,-0.58902 0.0845,-0.88409 0.0726,-0.89284 0.11644,-1.79524 0.0793,-2.69111 -0.0114,-0.27621 -0.0418,-0.5513 -0.0627,-0.82695 -0.0297,-0.26178 -0.0547,-0.52412 -0.0891,-0.78533 -0.14996,-1.14077 -0.40776,-2.26792 -0.47387,-3.41923 -0.007,-0.59878 -0.0243,-0.84911 0.0304,-1.4492 0.0864,-0.94856 -0.1959,-1.62065 0.0589,-2.53536 0.21262,-0.70796 0.364,-1.06128 0.52387,-2.4915 -0.0968,-2.68131 0.0602,-6.10406 -0.50758,-6.22375 z"
               sodipodi:nodetypes="ccscscscscsccscsssccccccssccccccccc" /><path
               style="fill:#44240e;fill-opacity:0.596639;stroke:none;stroke-width:2.1;stroke-linecap:round;stroke-linejoin:round;stroke-dasharray:none;stroke-opacity:1"
               id="path23"
               d="m 190.13346,204.67515 c -0.56212,2.38494 -1.58975,4.63039 -2.80585,6.7486 -0.28813,0.50187 -0.5973,0.99138 -0.89594,1.48706 -0.93279,1.48336 -1.93964,2.91779 -2.95353,4.34619 -0.45008,0.63408 -1.35695,1.88587 -1.79624,2.54679 -0.26451,0.39795 -0.51088,0.80767 -0.76632,1.2115 -1.24063,2.12491 -1.9536,4.48645 -2.6754,6.82211 -1.6887,4.6382 -0.39626,2.90349 -0.0823,2.60531 2.15582,-2.04745 2.43151,-5.40269 4.18607,-8.43829 0.25005,-0.40454 0.49132,-0.81464 0.75015,-1.21362 0.44048,-0.67896 1.31264,-1.91434 1.76624,-2.56595 1.00281,-1.44059 2.00631,-2.8813 2.95425,-4.35896 0.30361,-0.49513 0.61706,-0.98435 0.91083,-1.48538 1.24113,-2.11683 2.29518,-4.35728 2.92493,-6.73564 0.19766,-0.94073 0.40669,-1.7163 0.2874,-2.68356 -0.024,-0.19473 -0.68748,-3.69609 -1.11333,-3.71029 -0.42586,-0.0142 -0.69098,5.42413 -0.69098,5.42413 z"
               sodipodi:nodetypes="cscssccscsscscszcc" /></g></g></g></g></g></svg>
