<?xml version="1.0" encoding="UTF-8" standalone="no"?>
<!-- Created with Inkscape (http://www.inkscape.org/) -->

<svg
   width="84.908012mm"
   height="103.2616mm"
   viewBox="0 0 84.908012 103.2616"
   version="1.1"
   id="svg1"
   xml:space="preserve"
   inkscape:version="1.3 (0e150ed6c4, 2023-07-21)"
   sodipodi:docname="Nuts.svg"
   xmlns:inkscape="http://www.inkscape.org/namespaces/inkscape"
   xmlns:sodipodi="http://sodipodi.sourceforge.net/DTD/sodipodi-0.dtd"
   xmlns="http://www.w3.org/2000/svg"
   xmlns:svg="http://www.w3.org/2000/svg"><sodipodi:namedview
     id="namedview1"
     pagecolor="#ffffff"
     bordercolor="#000000"
     borderopacity="0.25"
     inkscape:showpageshadow="2"
     inkscape:pageopacity="0.0"
     inkscape:pagecheckerboard="0"
     inkscape:deskcolor="#d1d1d1"
     inkscape:document-units="mm"
     inkscape:zoom="1.0449705"
     inkscape:cx="-35.886179"
     inkscape:cy="690.45009"
     inkscape:window-width="2560"
     inkscape:window-height="1369"
     inkscape:window-x="-8"
     inkscape:window-y="-8"
     inkscape:window-maximized="1"
     inkscape:current-layer="layer1" /><defs
     id="defs1" /><g
     inkscape:label="Ebene 1"
     inkscape:groupmode="layer"
     id="layer1"
     transform="translate(-14.190938,-17.492885)"><g
       id="g50"
       transform="matrix(0.97489844,0,0,0.9704857,-209.0295,-59.573674)"><path
         id="path32"
         style="fill:#eebc63;fill-opacity:1;stroke:#58350f;stroke-width:2;stroke-linecap:round;stroke-linejoin:round;stroke-dasharray:none;stroke-opacity:1"
         d="m 284.6463,179.90978 a 8.1017944,11.172289 0 0 0 1.80051,-0.30547 8.1017944,11.172289 0 0 0 3.63464,-2.72324 16.734021,8.3078178 82.959349 0 0 4.48925,0.97001 16.734021,8.3078178 82.959349 0 0 5.42151,-9.87515 16.890254,8.2309713 89.393998 0 0 5.51287,-16.22935 16.890254,8.2309713 89.393998 0 0 -6.43779,-16.18015 7.8566714,10.068779 57.460939 0 0 0.16055,-3.16189 7.8566714,10.068779 57.460939 0 0 -2.58688,-4.06673 7.8566714,10.068779 57.460939 0 0 0.7307,-4.74432 7.8566714,10.068779 57.460939 0 0 -2.93123,-4.29983 9.6449942,13.300346 0 0 0 -0.23937,-2.87236 9.6449942,13.300346 0 0 0 -11.62413,-9.84329 9.6449942,13.300346 0 0 0 -7.13595,16.02811 9.6449942,13.300346 0 0 0 0.7307,2.71742 30.180814,9.6608932 85.28212 0 0 -1.72073,10.59614 7.9467224,16.455922 0 0 0 -1.93596,-0.51106 7.9467224,16.455922 0 0 0 -1.9202,0.50383 9.6608932,30.180814 4.7178807 0 0 -1.73647,-10.77421 9.6449942,13.300346 0 0 0 0.73174,-2.71598 9.6449942,13.300346 0 0 0 -7.13699,-16.02959 9.6449942,13.300346 0 0 0 -11.62312,9.84331 9.6449942,13.300346 0 0 0 -0.23935,2.8738 10.068779,7.8566714 32.539061 0 0 -2.93125,4.29984 10.068779,7.8566714 32.539061 0 0 0.73072,4.74284 10.068779,7.8566714 32.539061 0 0 -2.58688,4.0682 10.068779,7.8566714 32.539061 0 0 0.15953,3.1619 8.2309713,16.890254 0.60600192 0 0 -6.43778,16.17869 8.2309713,16.890254 0.60600192 0 0 5.51285,16.23082 8.3078178,16.734021 7.040652 0 0 5.42258,9.87515 8.3078178,16.734021 7.040652 0 0 4.48921,-0.97003 8.1017944,11.172289 0 0 0 3.63364,2.7218 8.1017944,11.172289 0 0 0 1.8005,0.30549 8.1017944,11.172289 0 0 0 7.96325,-8.57363 8.1017944,11.172289 0 0 0 -0.061,-5.35671 7.9467224,16.455922 0 0 0 4.22888,2.52635 7.9467224,16.455922 0 0 0 4.24462,-2.5799 8.1017944,11.172289 0 0 0 -0.0766,5.59558 8.1017944,11.172289 0 0 0 7.96327,8.57361 z" /><path
         style="fill:#c67b1e;fill-opacity:1;stroke:none;stroke-width:2;stroke-linecap:round;stroke-linejoin:round;stroke-dasharray:none;stroke-opacity:1"
         d="m 260.32018,129.7125 c -1.20774,0.51308 -4.834,4.38641 -4.834,4.38641 l -1.79037,10.20513 c 0,0 2.68621,0.59398 3.13315,2.23796 0.44694,1.64398 -3.04364,5.90823 -2.59605,5.81871 0.4476,-0.0895 5.63968,-0.26855 5.63968,-0.26855 l 7.34054,-4.38642 5.46063,-0.0895 3.04363,2.05892 c 0,0 6.43674,0.98224 8.14618,-0.26855 1.70944,-1.25079 0.35552,-3.02214 1.52183,-4.2969 1.16631,-1.27476 5.63967,-2.32748 5.28159,-2.417 -0.35806,-0.0895 -0.80566,-5.10256 -0.80566,-5.10256 0,0 -1.9694,-5.19208 -2.32749,-5.19208 -0.35806,0 -3.00953,-2.69052 -4.83399,-2.05893 -1.82446,0.63159 -3.04363,5.55015 -3.04363,5.55015 h -4.83402 l -4.29688,-0.17903 -2.14845,3.49122 c 0,0 -4.47594,-0.44759 -4.65498,-1.16374 -0.17904,-0.71615 -2.05893,-8.41475 -2.05893,-8.41475 0,0 -0.13504,-0.42357 -1.34278,0.0895 z"
         id="path45"
         sodipodi:nodetypes="zcczscccczzscszccccscz" /><path
         style="fill:#a55b1b;fill-opacity:1;stroke:none;stroke-width:2;stroke-linecap:round;stroke-linejoin:round;stroke-dasharray:none;stroke-opacity:1"
         d="m 265.98337,140.00208 c 0,0 1.06934,2.03543 1.06027,3.32321 -0.009,1.28778 -1.34512,4.0195 -1.34512,4.0195 0,0 7.95994,0.8533 8.18372,0.80855 0.22381,-0.0448 5.14734,0.7609 5.14734,0.7609 0,0 -1.28227,-3.33919 -0.20448,-4.87744 1.07779,-1.53825 2.37444,-2.09726 2.03665,-4.3353 -0.33779,-2.23804 -3.10451,-3.12679 -3.10451,-3.12679 l -7.09765,-1.62537 -1.87989,3.31219 -2.46176,1.87989 z"
         id="path46"
         sodipodi:nodetypes="czcsczzccccc" /><path
         style="fill:#efaa42;fill-opacity:1;stroke:#58350f;stroke-width:2;stroke-linecap:round;stroke-linejoin:round;stroke-dasharray:none;stroke-opacity:1"
         id="path40"
         d="m 258.77588,172.82705 c -0.008,-0.63217 0.0349,-1.26413 0.0747,-1.89477 0.0828,-0.91024 0.10654,-1.81872 -0.0391,-2.72243 -0.15599,-0.86462 -0.65267,-1.53635 -1.24978,-2.1506 -0.62155,-0.56586 -1.29112,-1.07722 -1.95562,-1.59126 -0.87865,-0.62403 -1.41572,-1.51269 -1.86975,-2.46671 -0.63301,-1.52899 -0.43781,-3.18183 -0.12444,-4.75932 0.30416,-1.45535 0.84786,-2.82844 1.60472,-4.10389 0.49329,-0.70928 1.14785,-1.30848 2.07195,-1.15689 0.15521,0.0255 0.30324,0.0837 0.45486,0.12558 0.72467,0.18325 1.276,0.82017 2.01275,0.96168 0.11073,0.0213 0.22531,0.01 0.33797,0.0143 0.92187,-0.27042 1.58704,-1.02394 2.24711,-1.68244 0.80401,-0.77897 1.59554,-1.59346 2.5381,-2.20909 0.19934,-0.1302 0.40946,-0.24308 0.61419,-0.36462 1.03296,-0.52392 2.13374,-0.9725 3.29123,-1.12411 0.21988,-0.0288 0.44237,-0.0317 0.66356,-0.0476 1.26341,-0.035 2.4219,0.42642 3.54092,0.9584 0.62913,0.33044 1.2574,0.65067 1.96556,0.77067 0.4912,0.0832 0.75008,0.0703 1.25023,0.0815 1.26577,0.009 2.52369,-0.14266 3.78078,-0.27033 1.07518,-0.0892 2.16038,-0.27842 3.23919,-0.11593 0.25676,0.0387 0.50758,0.10971 0.76138,0.16456 1.56106,0.48148 2.92189,1.41416 4.24754,2.34188 -0.0258,0.002 -0.0933,-0.0144 -0.0773,0.006 0.73103,0.92625 0.21612,0.033 0.85078,0.99405 0.32339,0.48968 0.51691,1.02016 0.69567,1.57341 0.30465,1.18571 0.10176,2.15942 -0.28946,3.28729 -0.40995,1.03356 -0.95606,2.00088 -1.52138,2.95508 -0.66417,0.98671 -1.13343,2.07219 -1.52,3.1916 -0.45968,1.31791 -0.68408,2.68249 -0.74212,4.07217 -0.006,0.63125 0.0504,1.26029 0.0985,1.88893 -0.11349,0.18847 0.55285,0.5897 0.66633,0.40123 v 0 c -0.0498,-0.62649 -0.10889,-1.2533 -0.10556,-1.88253 0.0523,-1.38323 0.27131,-2.74175 0.72933,-4.05337 0.38613,-1.1138 0.85587,-2.19287 1.51516,-3.17598 0.56757,-0.95899 1.11816,-1.92954 1.52936,-2.96845 0.39829,-1.13952 0.61264,-2.12757 0.31639,-3.32948 -0.52604,-1.68444 -1.20552,-2.48418 -2.70055,-3.49541 -1.33075,-0.92566 -2.69759,-1.85545 -4.26837,-2.31899 -0.25642,-0.0528 -0.51009,-0.12135 -0.76927,-0.15827 -1.08355,-0.15435 -2.17232,0.0336 -3.25165,0.12368 -1.25448,0.12809 -2.51029,0.27706 -3.77356,0.26336 -0.50264,-0.0161 -0.74927,-0.004 -1.24148,-0.0957 -0.70239,-0.13019 -1.32556,-0.46145 -1.95507,-0.78243 -1.12803,-0.52722 -2.29551,-0.97468 -3.56461,-0.92572 -0.2231,0.0182 -0.44758,0.0237 -0.66929,0.0545 -1.16306,0.16159 -2.26901,0.61481 -3.30638,1.14617 -0.20638,0.12311 -0.41818,0.23756 -0.61915,0.36933 -0.94496,0.61961 -1.73805,1.43792 -2.54767,2.21721 -0.64647,0.63802 -1.30287,1.39354 -2.21402,1.62405 -0.10761,-0.01 -0.21756,-0.005 -0.32282,-0.0294 -0.72764,-0.16872 -1.28312,-0.78348 -2.01414,-0.954 -0.15552,-0.0376 -0.30784,-0.0927 -0.46656,-0.11294 -0.94524,-0.12083 -1.61533,0.50202 -2.11746,1.22695 -0.76007,1.28405 -1.30551,2.66633 -1.61223,4.13024 -0.31794,1.58631 -0.52506,3.25207 0.0915,4.79687 0.44597,0.95986 0.96949,1.86464 1.84654,2.49626 0.66445,0.51241 1.33068,1.02536 1.95942,1.58135 0.59962,0.59958 1.10836,1.25437 1.27403,2.10908 0.15492,0.89761 0.13169,1.80146 0.0482,2.70692 -0.0416,0.6298 -0.0858,1.26061 -0.0891,1.89192 -0.11783,0.19228 0.56201,0.60889 0.67984,0.4166 z" /><path
         style="fill:#efaa42;fill-opacity:1;stroke:#58350f;stroke-width:2;stroke-linecap:round;stroke-linejoin:round;stroke-dasharray:none;stroke-opacity:1"
         id="path41"
         d="m 292.93644,128.59312 c -0.95638,0.37912 -1.85825,0.88921 -2.76141,1.37947 -0.61192,0.34207 -1.19889,0.72828 -1.73622,1.17972 -0.39797,0.33434 -0.59616,0.48501 -0.82312,0.94565 -0.0764,0.155 -0.11034,0.32751 -0.1655,0.49127 -0.12627,1.05665 0.40721,1.92829 0.95214,2.78058 0.58317,0.93686 1.16863,1.87234 1.74346,2.81437 0.45802,0.71549 0.50791,1.23241 0.11544,1.97308 -0.30808,0.46367 -0.78067,0.85784 -0.90009,1.42617 -0.0226,0.10756 -0.0163,0.21921 -0.0245,0.32881 0.0244,0.11058 0.0279,0.22793 0.0731,0.33173 0.27877,0.6397 1.39323,1.38383 1.94624,1.79964 0.91324,0.69267 1.8901,1.29253 2.83739,1.93533 0.1537,-0.1597 -0.41092,-0.7031 -0.56462,-0.54341 v 0 c -0.78433,-0.52712 -1.09049,-0.68788 -1.57534,-1.04893 -0.51927,-0.38863 -1.67446,-1.17588 -1.96234,-1.74737 -0.0484,-0.0961 -0.0566,-0.20756 -0.0849,-0.31134 0.004,-0.1038 -0.006,-0.20924 0.0126,-0.31139 0.10493,-0.56748 0.59562,-0.95237 0.89387,-1.41483 0.4042,-0.75611 0.39309,-1.30661 -0.0796,-2.04646 -0.57494,-0.94245 -1.16296,-1.87674 -1.74289,-2.81609 -0.53786,-0.83422 -1.08405,-1.68173 -0.98737,-2.72084 0.0508,-0.15869 0.0806,-0.32574 0.15254,-0.47607 0.21683,-0.45344 0.41202,-0.59956 0.80346,-0.92752 0.53507,-0.44831 1.12105,-0.82939 1.7304,-1.16815 0.89916,-0.4861 1.7969,-1.00481 2.76198,-1.34773 0.14303,-0.1739 -0.47176,-0.67958 -0.61479,-0.50569 z" /><path
         style="fill:#efaa42;fill-opacity:1;stroke:#58350f;stroke-width:2;stroke-linecap:round;stroke-linejoin:round;stroke-dasharray:none;stroke-opacity:1"
         id="path42"
         d="m 254.32592,131.06432 c 0.0378,0.006 0.0758,0.01 0.11333,0.0166 0.0979,0.0179 0.28719,0.0571 0.37175,0.0966 0.0783,0.0366 0.29693,0.17701 0.22046,0.13666 -0.47012,-0.24808 -0.52244,-0.38613 -0.15923,0.0661 0.0686,0.12816 0.15402,0.24862 0.20568,0.38447 0.38348,1.00836 0.0808,2.15907 -0.16423,3.1562 -0.3747,1.48601 -1.09655,2.84302 -1.73982,4.22347 -0.11584,0.33368 -0.62591,1.14526 -0.37401,1.51672 0.0353,0.052 0.0933,0.0843 0.13989,0.12647 1.62096,1.00845 0.3592,0.33286 1.06592,0.58691 0.0755,0.0271 0.27961,0.15088 0.2202,0.097 -0.95798,-0.86875 -0.31042,-0.15941 -0.27132,-0.078 0.0419,0.0873 0.0493,0.18724 0.0739,0.28086 -0.0655,1.10045 -0.9407,1.887 -1.67103,2.61982 -0.48698,0.47527 -1.00617,0.91462 -1.52744,1.35116 -0.13047,0.17633 0.49293,0.63762 0.62341,0.46129 v 0 c 0.52197,-0.43899 1.04172,-0.8809 1.53017,-1.35765 0.7539,-0.75517 1.62751,-1.55094 1.72639,-2.67745 -0.0194,-0.10237 -0.0209,-0.20982 -0.0582,-0.30709 -0.1531,-0.39894 -0.75351,-0.67036 -1.00645,-0.83018 -0.0688,-0.0435 -0.14987,-0.0634 -0.2264,-0.0909 -0.0715,-0.0257 -0.26446,-0.128 -0.2172,-0.0686 0.11984,0.15069 0.30021,0.24114 0.45031,0.36171 -0.0528,-0.0299 -0.11467,-0.0477 -0.15841,-0.0897 -0.29929,-0.2878 0.22923,-1.1924 0.3243,-1.46816 0.63786,-1.3886 1.36179,-2.74972 1.74289,-4.23904 0.25419,-1.01141 0.56138,-2.1665 0.204,-3.1976 -0.0483,-0.13932 -0.13133,-0.26406 -0.19699,-0.39609 -0.44889,-0.60076 -1.07902,-1.12818 -1.84319,-1.2055 -0.14821,0.17006 0.45307,0.69406 0.60128,0.52399 z" /><path
         style="fill:#efaa42;fill-opacity:1;stroke:#58350f;stroke-width:2;stroke-linecap:round;stroke-linejoin:round;stroke-dasharray:none;stroke-opacity:1"
         id="path43"
         d="m 260.37065,113.07981 c -0.61819,0.72303 -1.1653,1.50343 -1.73329,2.2657 -0.8308,1.1613 -1.69983,2.294 -2.55667,3.43594 -0.70236,0.93344 -0.94333,1.74203 -0.85865,2.89386 0.16373,1.08697 0.86141,1.87228 1.60232,2.62737 0.93409,0.84837 1.75096,1.80603 2.50204,2.81683 0.72491,0.93609 1.42148,1.88759 1.95584,2.94623 0.42149,1.00085 0.38399,2.10242 0.41326,3.16771 0.003,0.98627 0.21688,1.89356 0.67077,2.76589 0.49856,0.88582 1.1733,1.63696 1.90546,2.33292 0.63161,0.52361 1.32643,1.23076 2.20271,1.26117 0.35791,0.0124 0.58562,-0.0806 0.92604,-0.17549 0.85157,-0.27521 1.60124,-0.72623 2.24885,-1.33709 0.0791,-0.0793 0.15822,-0.1585 0.23733,-0.23775 0.1309,-0.18023 -0.50632,-0.64303 -0.63722,-0.4628 v 0 c -0.0784,0.0788 -0.15676,0.15758 -0.23514,0.23637 -0.63809,0.60271 -1.37988,1.04449 -2.22157,1.30918 -0.4587,0.11841 -0.84942,0.21521 -1.31575,0.0597 -0.13843,-0.0462 -0.25228,-0.19158 -0.39792,-0.18249 -0.10437,0.007 0.31948,0.26837 0.24823,0.19183 -0.1075,-0.1155 -0.23864,-0.20648 -0.35797,-0.30973 -0.73418,-0.68891 -1.41313,-1.43049 -1.91645,-2.30998 -0.47205,-0.86727 -0.68075,-1.74674 -0.69071,-2.73581 -0.031,-1.07364 0.0119,-2.18384 -0.397,-3.19756 -0.52832,-1.06612 -1.22285,-2.02286 -1.95298,-2.95999 -0.74713,-1.01404 -1.55774,-1.97906 -2.49459,-2.8254 -0.737,-0.74172 -1.44356,-1.5054 -1.62428,-2.57721 -0.10065,-1.13653 0.13072,-1.92658 0.82133,-2.85089 0.8541,-1.144 1.72173,-2.27777 2.55608,-3.43645 0.56687,-0.75691 1.11232,-1.53409 1.74199,-2.24092 0.13326,-0.1816 -0.5088,-0.65277 -0.64206,-0.47117 z" /><path
         style="fill:#efaa42;fill-opacity:1;stroke:#58350f;stroke-width:2;stroke-linecap:round;stroke-linejoin:round;stroke-dasharray:none;stroke-opacity:1"
         id="path44"
         d="m 285.86763,111.17354 c 0.29549,0.77053 0.43592,1.58129 0.55924,2.39349 0.2102,1.35594 0.28978,2.71771 0.17558,4.08461 -0.0994,0.81216 -0.26034,1.62874 -0.65568,2.35505 -0.21132,0.38824 -0.40732,0.61606 -0.67419,0.96391 -0.64604,0.7987 -1.44706,1.4432 -2.24776,2.07751 -0.71435,0.55678 -0.92425,0.83577 -1.1317,1.71467 -0.2365,1.06381 -0.11628,2.1417 0.004,3.21015 0.2024,1.32 -0.0315,2.61994 -0.38313,3.89002 -0.33343,1.09232 -0.76793,2.14873 -1.4468,3.07128 -0.75489,0.72264 -1.39855,0.79103 -2.39084,0.63836 -0.46122,-0.0787 -0.87257,-0.29467 -1.28676,-0.49893 -0.15125,0.16168 0.42037,0.69643 0.57162,0.53475 v 0 c 0.41964,0.20093 0.83745,0.40952 1.30335,0.48132 1.01885,0.13714 1.68046,0.0398 2.44201,-0.70571 0.68177,-0.93246 1.12131,-1.99633 1.45688,-3.09847 0.35541,-1.27604 0.59927,-2.58519 0.40277,-3.91291 -0.12044,-1.05964 -0.25055,-2.12891 -0.0139,-3.1845 0.20136,-0.86065 0.40222,-1.12382 1.10066,-1.67243 0.80338,-0.6405 1.60686,-1.29133 2.25493,-2.096 0.26834,-0.35092 0.4701,-0.5875 0.68362,-0.97853 0.40066,-0.73372 0.56679,-1.55768 0.66823,-2.37886 0.11864,-1.37174 0.0414,-2.73779 -0.16536,-4.09948 -0.11738,-0.81022 -0.24571,-1.62259 -0.53661,-2.39221 0.11231,-0.19528 -0.57811,-0.59237 -0.69042,-0.39709 z" /><path
         style="fill:#58350f;fill-opacity:1;stroke:none;stroke-width:2;stroke-linecap:round;stroke-linejoin:round;stroke-dasharray:none;stroke-opacity:1"
         id="path47"
         d="m 270.33664,136.49511 c 0.10673,0.0339 0.21556,0.0604 0.32316,0.0916 0.20569,0.0666 0.41389,0.12464 0.62474,0.17238 0.24931,0.0555 0.50228,0.0882 0.75721,0.0996 0.26524,0.006 0.5307,-0.003 0.7956,-0.0162 0.24964,-0.0105 0.49874,-0.0292 0.74761,-0.0508 0.25265,-0.0226 0.50506,-0.0475 0.75774,-0.0696 0.27503,-0.0265 0.55046,-0.0484 0.82507,-0.079 0.17802,-0.0226 0.35695,-0.046 0.52668,-0.10626 0.0963,-0.0395 0.17302,-0.10988 0.23437,-0.19237 0.0523,-0.0723 0.059,-0.15313 0.0454,-0.23855 -0.0246,-0.099 -0.0764,-0.18782 -0.13142,-0.27264 -0.0627,-0.093 -0.12858,-0.18385 -0.19928,-0.27096 -0.254,-0.2813 -0.57483,-0.51839 -0.93364,-0.64413 -0.16639,-0.0527 -0.33887,-0.0823 -0.5103,-0.11337 -0.17182,-0.031 -0.34544,-0.0501 -0.51898,-0.0682 -0.18571,-0.0183 -0.37192,-0.03 -0.55819,-0.0406 -0.19608,-0.0128 -0.39251,-0.0124 -0.58888,-0.0114 -0.16682,7.9e-4 -0.33367,0.002 -0.50049,0.003 -0.14756,2.7e-4 -0.29512,-0.002 -0.44267,-0.003 -0.14023,-0.001 -0.28028,-0.011 -0.42029,-0.0186 -0.0809,-0.004 -0.16177,-0.009 -0.24271,-0.0113 -0.0188,-5.3e-4 -0.0375,-0.003 -0.0561,-0.001 -0.0204,0.002 -0.0401,0.007 -0.0601,0.0108 -0.14909,0.0416 -0.27115,0.14089 -0.38801,0.23818 -0.14192,0.11802 -0.27223,0.24751 -0.39365,0.38625 -0.0972,0.11653 -0.19124,0.23617 -0.2776,0.36101 -0.0675,0.10214 -0.12554,0.21012 -0.17248,0.32316 -0.0371,0.0957 -0.064,0.19521 -0.0817,0.29628 -0.0119,0.0713 -0.005,0.14139 0.0167,0.20985 0.12478,0.28928 0.45559,0.56522 0.77467,0.5243 0.11407,-0.0278 0.22532,-0.0664 0.33804,-0.0993 0.1234,-0.0345 0.24839,-0.0627 0.37406,-0.0874 0.11907,-0.0236 0.23929,-0.04 0.35984,-0.0538 0.12694,-0.016 0.25402,-0.0305 0.381,-0.046 0.0698,-0.008 0.13964,-0.0155 0.20941,-0.0237 0.14119,-0.16925 -0.45722,-0.66847 -0.59843,-0.49921 v 0 c -0.0697,0.008 -0.13944,0.0158 -0.20915,0.0239 -0.12761,0.0143 -0.25543,0.0272 -0.38267,0.0448 -0.12218,0.015 -0.2441,0.0321 -0.36446,0.0584 -0.12674,0.0268 -0.2526,0.0576 -0.37714,0.0933 -0.10721,0.0316 -0.21656,0.0739 -0.32938,0.0737 -0.01,-0.002 -0.0198,-0.004 -0.0293,-0.007 -0.008,-0.003 -0.0284,-0.0177 -0.0214,-0.0129 0.20719,0.14595 0.41635,0.28917 0.6227,0.4363 0.0151,0.0107 -0.0885,-0.0425 -0.0561,-0.0398 -0.0323,-0.053 -0.0468,-0.11199 -0.0433,-0.17433 0.0114,-0.0968 0.0349,-0.19119 0.0689,-0.28258 0.0419,-0.10908 0.0966,-0.21288 0.15943,-0.31138 0.0832,-0.12338 0.17423,-0.24148 0.26848,-0.35656 0.11692,-0.13648 0.2437,-0.26344 0.38433,-0.37583 0.11046,-0.0857 0.22617,-0.17667 0.36838,-0.19776 0.11644,-0.005 0.23275,0.006 0.34912,0.0101 0.13978,0.006 0.27956,0.0141 0.41952,0.0139 0.1479,0.002 0.29583,0.005 0.44373,0.002 0.16534,-0.002 0.33068,-0.005 0.49602,-0.007 0.19529,-0.001 0.39055,10e-4 0.58541,0.015 0.18609,0.0116 0.37211,0.0246 0.55748,0.0448 0.17256,0.019 0.34486,0.0409 0.51557,0.0728 0.16997,0.0314 0.34131,0.0633 0.50265,0.12723 0.0228,0.0102 0.0459,0.0195 0.0682,0.0306 0.0201,0.0102 0.0773,0.0465 0.059,0.0333 -0.19235,-0.13934 -0.38759,-0.27466 -0.5815,-0.41182 -0.0145,-0.0104 0.0297,0.0204 0.0438,0.0315 0.0325,0.0257 0.0477,0.0425 0.0771,0.0718 0.0735,0.0833 0.141,0.17153 0.20278,0.26394 0.0559,0.0766 0.10705,0.15636 0.14144,0.24529 0.0217,0.0632 0.0319,0.12298 -0.009,0.18118 -0.0501,0.0719 -0.11674,0.12797 -0.19974,0.15846 -0.16221,0.0552 -0.33197,0.0822 -0.50138,0.10504 -0.27326,0.033 -0.54753,0.0555 -0.82175,0.0787 -0.25368,0.0211 -0.50707,0.0453 -0.76067,0.0673 -0.24749,0.0211 -0.4952,0.0391 -0.74335,0.0505 -0.26345,0.0116 -0.5275,0.0215 -0.79113,0.01 -0.25297,-0.0167 -0.50411,-0.0521 -0.75073,-0.11202 -0.21119,-0.0524 -0.41989,-0.11375 -0.62714,-0.1801 -0.11464,-0.0344 -0.22921,-0.0688 -0.34195,-0.10908 -0.15142,0.16717 0.43963,0.70253 0.59105,0.53536 z" /><path
         style="fill:#58350f;fill-opacity:1;stroke:none;stroke-width:2;stroke-linecap:round;stroke-linejoin:round;stroke-dasharray:none;stroke-opacity:1"
         id="path48"
         d="m 271.4857,135.65592 c 0.13827,-0.0401 0.28104,-0.0614 0.42302,-0.0834 0.22942,-0.0348 0.46048,-0.0567 0.69154,-0.0769 0.25543,-0.0209 0.51136,-0.0345 0.76729,-0.0471 0.23463,-0.01 0.46937,-0.0149 0.70416,-0.0175 0.20582,0.002 0.41175,0.004 0.61664,0.0248 0.1506,0.0158 0.30041,0.0385 0.44894,0.0677 0.0356,0.009 0.0724,0.0152 0.10634,0.0297 0.006,0.003 0.0241,0.0136 0.0183,0.01 -0.64008,-0.43859 -0.87778,-0.33702 -0.62794,-0.43988 0.055,-0.048 -0.0262,-0.006 -0.0449,2.6e-4 -0.0675,0.0194 -0.137,0.0303 -0.20632,0.0406 -0.0879,0.0128 -0.17643,0.0189 -0.26469,0.0278 -0.12438,0.011 -0.24858,0.0239 -0.37277,0.0371 -0.17429,0.0221 -0.34881,0.0425 -0.52324,0.0635 -0.19558,0.0234 -0.39188,0.0403 -0.5882,0.0559 -0.17039,0.0131 -0.34084,0.0256 -0.51157,0.0328 -0.15182,0.005 -0.30369,0.0122 -0.45561,0.0102 -0.13931,-0.002 -0.27861,-0.006 -0.41791,-0.009 -0.13198,-0.002 -0.26398,-0.003 -0.39595,-0.007 -0.0577,0.006 -0.11928,-0.0156 -0.17637,-0.003 0.76776,0.7707 0.35475,0.47102 0.73847,0.52342 0.0693,0.009 0.1392,0.0127 0.20818,0.0241 0.10573,0.0136 0.21103,0.03 0.31676,0.0437 0.2059,0.0286 0.41251,0.052 0.61926,0.0736 0.25955,0.0271 0.5198,0.0466 0.78015,0.0646 0.25407,0.0157 0.50834,0.0286 0.7626,0.0415 0.19111,0.008 0.38212,0.0189 0.57322,0.0269 0.0951,0.008 0.19019,0.003 0.28528,-0.001 0.082,-2.7e-4 0.16208,-0.008 0.24209,-0.0263 0.10332,-0.0216 0.20651,-0.0447 0.30811,-0.0734 0.0341,-0.0129 0.0801,-0.0184 0.0999,-0.0537 0.0103,-0.0183 0.0425,-0.0444 0.0259,-0.0573 -0.21196,-0.16437 -0.44767,-0.29556 -0.67151,-0.44335 -0.10176,0.0245 -0.2055,0.0408 -0.3088,0.0576 -0.12731,0.0199 -0.25527,0.0353 -0.38287,0.0531 -0.10925,0.0137 -0.21818,0.0289 -0.32661,0.048 -0.10975,0.0233 -0.21804,0.0529 -0.3261,0.083 -0.11456,0.0341 -0.23005,0.0647 -0.34671,0.0908 -0.10403,0.0228 -0.20899,0.041 -0.31424,0.0572 -0.0939,0.014 -0.18817,0.0247 -0.28258,0.0344 -0.0976,0.01 -0.19542,0.0156 -0.29329,0.0211 -0.0988,0.007 -0.19775,0.007 -0.29665,0.007 -0.10038,0.003 -0.19915,-0.0131 -0.29784,-0.0289 -0.0985,-0.016 -0.19307,-0.0486 -0.28816,-0.0777 -0.0883,-0.0302 -0.17253,-0.0707 -0.25704,-0.11007 -0.0833,-0.0395 -0.16523,-0.0816 -0.25011,-0.11763 -0.0798,-0.0357 -0.15613,-0.0566 -0.24371,-0.0513 -0.0832,0.0108 -0.16817,0.0215 -0.24757,0.0496 -0.0527,0.021 -0.0834,0.0553 -0.10189,0.1077 -0.003,0.022 -0.007,0.026 1.1e-4,0.0468 0.006,0.0167 0.0206,0.044 0.0351,0.0544 0.21855,0.15647 0.43929,0.30985 0.65895,0.46477 0.0483,0.0221 0.0959,0.0445 0.14673,0.0606 0.061,0.0181 0.12174,0.0361 0.18368,0.0508 0.0669,0.0122 0.13271,0.0284 0.19915,0.0426 0.0797,0.0156 0.15668,0.0408 0.23288,0.0686 0.0632,0.0197 0.12388,0.0458 0.175,0.0883 0.2019,0.17312 0.41693,0.35714 -0.61576,-0.46572 -0.0122,-0.01 0.0451,-0.0328 -0.007,-0.0386 -0.0523,-0.007 -0.10533,-0.007 -0.15769,-0.0139 -0.079,-0.007 -0.1569,-0.0198 -0.2348,-0.0338 -0.0906,-0.0164 -0.18094,-0.0359 -0.26987,-0.0599 -0.0805,-0.0214 -0.16388,-0.0367 -0.23675,-0.0787 -0.19656,-0.23509 0.84847,0.29132 0.60177,0.43931 -0.006,0.003 0.004,-0.0127 0.008,-0.0177 0.007,-0.009 0.0151,-0.0163 0.0228,-0.0244 0.0678,-0.0643 0.13693,-0.12675 0.20228,-0.19366 0.0561,-0.0576 0.10694,-0.1197 0.14634,-0.18992 0.16817,-0.28898 -0.36616,-0.68243 -0.65754,-0.5486 -0.0686,0.0233 -0.12904,0.0604 -0.18772,0.10196 -0.0717,0.054 -0.14582,0.10535 -0.2067,0.17185 -0.22294,0.28157 0.44591,0.4653 0.61807,0.58203 0.0161,0.011 0.039,0.003 0.0585,0.005 0.0249,0.002 0.0498,0.004 0.0747,0.006 0.19648,0.0166 0.3937,0.0197 0.5906,0.0285 0.14235,0.007 0.26847,0.0633 0.38666,0.13827 0.26342,0.18347 -0.38237,-0.26601 -0.57343,-0.39922 -0.008,-0.005 0.0159,0.0103 0.0236,0.0158 0.0138,0.01 0.0262,0.0209 0.0404,0.0301 0.013,0.0115 0.005,0.0177 -0.01,0.0206 -0.0318,0.009 -0.0643,0.0143 -0.097,0.018 -0.0716,0.0106 -0.14367,0.008 -0.21572,0.007 -0.0982,-0.009 -0.19423,-0.0341 -0.29109,-0.0521 -0.0998,-0.0232 -0.20058,-0.0419 -0.29959,-0.0683 -0.0881,-0.0248 -0.17722,-0.0446 -0.26723,-0.0606 -0.0661,-0.006 -0.13266,-0.004 -0.19833,-0.0151 -0.003,-0.002 -0.0119,-0.009 -0.009,-0.007 0.7419,0.57824 0.39479,0.56326 0.82405,0.41968 0.17973,-0.0531 0.36187,-0.0973 0.54546,-0.13466 0.22876,-0.0432 0.45924,-0.0765 0.69107,-0.0975 0.22587,-0.0231 0.4527,-0.0201 0.67924,-0.0131 0.28202,0.01 0.56404,0.0181 0.84619,0.023 0.29072,0.006 0.58153,0.002 0.8722,-0.005 0.14554,-0.006 0.29099,-0.0138 0.43637,-0.0224 0.14074,-0.16706 -0.44992,-0.66457 -0.59062,-0.49752 v 0 c -0.14185,0.011 -0.28374,0.0218 -0.42593,0.0272 -0.28813,0.009 -0.57648,0.0149 -0.86469,0.006 -0.28426,-0.007 -0.56837,-0.0179 -0.85248,-0.0294 -0.2294,-0.007 -0.45898,-0.008 -0.68739,0.0191 -0.2335,0.0247 -0.46577,0.0593 -0.69652,0.10286 -0.18872,0.0371 -0.37626,0.0807 -0.5612,0.1337 -0.0369,0.0118 -0.0914,0.0287 -0.12825,0.0423 -0.0161,0.006 -0.0323,0.0124 -0.0481,0.0193 -0.013,0.006 -0.0483,0.009 -0.0381,0.0186 0.54568,0.52778 0.33364,0.55284 0.60656,0.51606 0.0631,0.002 0.12666,0.003 0.18862,0.016 0.0882,0.0177 0.17526,0.0403 0.2625,0.0622 0.10035,0.0229 0.20103,0.0443 0.30186,0.0649 0.0999,0.0198 0.20002,0.0425 0.30236,0.0431 0.0763,2e-4 0.1528,-0.001 0.22831,-0.0133 0.0412,-0.008 0.0829,-0.017 0.11854,-0.0403 0.0351,-0.0277 0.0623,-0.0616 0.067,-0.10772 2.7e-4,-0.0369 -0.0124,-0.073 -0.0444,-0.0957 -0.62084,-0.44077 -0.43561,-0.33421 -0.70572,-0.4874 -0.12549,-0.063 -0.25802,-0.0997 -0.39971,-0.10022 -0.19738,-0.007 -0.39552,-0.0119 -0.59131,-0.04 -0.0244,-0.005 -0.0494,-0.008 -0.0731,-0.0161 -0.0172,-0.006 -0.0636,-0.0353 -0.0491,-0.0242 0.19884,0.15279 0.40611,0.29453 0.60301,0.44979 0.007,0.005 -0.0161,0.009 -0.0238,0.007 -0.0122,-0.004 0.0309,-0.0414 0.0177,-0.034 0.0544,-0.063 0.12382,-0.11023 0.19164,-0.15765 0.0515,-0.0315 0.10781,-0.0642 0.16941,-0.0677 0.21746,0.16727 0.0167,0.0126 -0.62003,-0.44036 -0.006,-0.005 0.0127,-0.01 0.0201,-0.0107 0.008,-10e-4 0.004,0.0164 0.003,0.0241 -0.003,0.007 -0.005,0.0137 -0.007,0.0206 -0.0319,0.0657 -0.0777,0.12233 -0.12869,0.17434 -0.0657,0.0669 -0.13531,0.12914 -0.20447,0.1923 -0.0228,0.0224 -0.0361,0.0333 -0.0537,0.059 -0.18659,0.27367 0.36036,0.4726 0.64005,0.54531 0.0792,0.0248 0.16007,0.0435 0.2404,0.0641 0.0914,0.0212 0.18275,0.043 0.27557,0.0572 0.0797,0.0134 0.15999,0.0227 0.24034,0.0315 0.0557,0.004 0.11142,0.0106 0.16727,0.0104 0.0143,-0.001 0.0251,-7.9e-4 0.0378,-0.009 0.003,-0.002 0.0497,-0.0422 0.042,-0.0488 -0.49141,-0.42733 -0.3919,-0.37339 -0.63531,-0.50333 -0.0589,-0.028 -0.12116,-0.0479 -0.1827,-0.0689 -0.0791,-0.025 -0.15893,-0.0473 -0.24037,-0.0637 -0.066,-0.0152 -0.13259,-0.0278 -0.19804,-0.0452 -0.0601,-0.0168 -0.12007,-0.0351 -0.17812,-0.0581 -0.0469,-0.0216 -0.0947,-0.0438 -0.13523,-0.0761 0.20754,0.14647 0.41511,0.29293 0.62264,0.4394 -0.006,-0.003 -0.0286,-0.0144 -0.0344,-0.0183 -0.0124,-0.009 -0.0188,-0.0191 -0.0358,-0.0152 -0.0241,-0.004 0.0351,-0.0393 0.0425,-0.0339 0.0744,-0.0202 0.15181,-0.0332 0.2291,-0.0303 0.0779,0.0109 0.15092,0.04 0.22212,0.0729 0.0832,0.0387 0.16531,0.0799 0.249,0.11764 0.086,0.0384 0.17216,0.0765 0.26323,0.10158 0.0971,0.0293 0.19494,0.0566 0.29583,0.0693 0.10131,0.0145 0.20325,0.0226 0.30573,0.0193 0.0999,-8e-4 0.19989,-0.002 0.29961,-0.0101 0.0991,-0.006 0.1982,-0.013 0.297,-0.0231 0.0948,-0.011 0.18957,-0.0231 0.28379,-0.0386 0.10588,-0.0178 0.21135,-0.0381 0.31591,-0.0627 0.11671,-0.0279 0.23196,-0.0611 0.3475,-0.0935 0.10727,-0.0275 0.21445,-0.0559 0.32348,-0.0758 0.10771,-0.0178 0.21596,-0.0316 0.32393,-0.0475 0.12732,-0.0187 0.25495,-0.0352 0.38203,-0.0555 0.0637,-0.0101 0.1273,-0.0207 0.19132,-0.0284 0.019,-0.002 0.0673,-0.008 0.0892,-0.007 0.008,5.3e-4 0.0159,0.004 0.0235,0.006 -0.21299,-0.1461 -0.43804,-0.276 -0.63897,-0.4383 -0.0268,-0.0217 0.0782,-0.0662 0.0294,-0.0468 -0.008,0.003 -0.0164,0.006 -0.0246,0.009 -0.01,0.004 -0.0198,0.007 -0.03,0.01 -0.0987,0.0291 -0.19916,0.0528 -0.30086,0.0686 -0.079,0.0104 -0.15854,0.0124 -0.2381,0.0164 -0.0914,0.004 -0.18269,0.006 -0.27416,0.003 -0.18735,-0.003 -0.37462,-0.0105 -0.56184,-0.0187 -0.25297,-0.0108 -0.50594,-0.0226 -0.75854,-0.0402 -0.26006,-0.018 -0.51996,-0.0388 -0.77904,-0.0678 -0.21063,-0.0247 -0.42092,-0.0524 -0.63023,-0.0866 -0.10764,-0.0172 -0.21535,-0.0336 -0.32325,-0.0489 -0.0713,-0.008 -0.14247,-0.017 -0.21394,-0.0232 -0.3406,-0.0115 -0.34845,-0.14164 0.47038,0.508 0.0494,0.009 0.10969,-0.006 0.15965,2e-4 0.13118,2.1e-4 0.26233,0.003 0.39346,0.005 0.13936,0.003 0.27871,0.006 0.41809,0.007 0.15201,-0.002 0.30398,-0.008 0.45585,-0.0149 0.17026,-0.01 0.34039,-0.022 0.51025,-0.0373 0.19654,-0.0175 0.39299,-0.0359 0.58899,-0.0586 0.17611,-0.0203 0.35232,-0.0393 0.52867,-0.0572 0.12567,-0.0119 0.25132,-0.0235 0.37721,-0.0327 0.0903,-0.008 0.18061,-0.0155 0.27012,-0.0298 0.0739,-0.0123 0.14827,-0.0252 0.21897,-0.0506 0.0574,-0.0239 0.10869,-0.0523 0.12755,-0.11634 0.01,-0.32552 -0.49591,-0.44866 -0.7865,-0.49514 -0.14745,-0.0226 -0.29551,-0.0414 -0.44413,-0.0544 -0.20553,-0.0146 -0.41158,-0.0169 -0.61756,-0.0156 -0.23453,0.003 -0.46898,0.0104 -0.70324,0.0221 -0.25667,0.0135 -0.51324,0.0289 -0.76951,0.0487 -0.23363,0.0195 -0.46697,0.0433 -0.69898,0.0772 -0.17372,0.0258 -0.0363,0.005 -0.20553,0.0309 -0.0684,0.0103 -0.13914,0.0256 -0.20862,0.027 -0.008,1.6e-4 -0.0156,-0.001 -0.0236,-0.002 -0.1465,0.17154 0.45998,0.68952 0.60648,0.51798 z" /><path
         style="fill:#58350f;fill-opacity:1;stroke:none;stroke-width:2;stroke-linecap:round;stroke-linejoin:round;stroke-dasharray:none;stroke-opacity:1"
         id="path49"
         d="m 274.99958,135.14145 c -0.0921,0.0314 -0.18595,0.057 -0.27953,0.0836 -0.1211,0.0372 -0.23969,0.0823 -0.3583,0.12671 -0.13661,0.17195 0.47133,0.65493 0.60793,0.48298 v 0 c 0.11782,-0.0432 0.23588,-0.0865 0.35721,-0.11905 0.0928,-0.0248 0.18691,-0.0562 0.28306,-0.0617 0.14499,-0.17265 -0.46538,-0.68525 -0.61037,-0.5126 z" /><path
         style="fill:#58350f;fill-opacity:1;stroke:none;stroke-width:2;stroke-linecap:round;stroke-linejoin:round;stroke-dasharray:none;stroke-opacity:1"
         id="path50"
         d="m 270.37495,135.59017 c -0.0953,0.0684 -0.19378,0.1321 -0.28924,0.20044 -0.0886,0.0604 -0.1773,0.11989 -0.26143,0.18631 -0.13129,0.17593 0.49072,0.64003 0.62198,0.4641 v 0 c 0.0845,-0.064 0.1719,-0.12361 0.25963,-0.18302 0.0982,-0.0671 0.19897,-0.13049 0.30338,-0.18756 0.13583,-0.17942 -0.49848,-0.65968 -0.63432,-0.48027 z" /></g><path
       style="opacity:1;fill:#f9e8cc;fill-opacity:1;stroke:#ffd487;stroke-width:2;stroke-linecap:round;stroke-linejoin:round;stroke-dasharray:none;stroke-opacity:1"
       id="path79"
       d="m 46.517748,98.657774 c 0.718235,-0.932021 1.445628,-1.857168 2.176536,-2.779366 0.54828,-0.698145 1.103358,-1.456721 1.972789,-1.770422 0.321625,-0.116046 0.637797,-0.136837 0.972939,-0.178805 0.498645,-0.04001 0.998133,-0.02029 1.496518,0.0087 0.355095,0.02064 0.603938,0.06031 0.959252,0.0044 0.163124,-0.02569 0.319686,-0.08292 0.479528,-0.12438 0.682792,-0.274543 1.263068,-0.736547 1.92935,-1.042924 0.16515,-0.07594 0.3282,-0.162791 0.504534,-0.206926 0.185494,-0.04643 0.380185,-0.0414 0.57028,-0.06209 0.20756,0.02111 0.416782,0.02972 0.622684,0.06337 0.393313,0.06428 0.942681,0.220863 1.322586,0.331321 0.640855,0.186331 1.271883,0.401617 1.904526,0.61358 0.56206,0.189336 1.112991,0.407956 1.661819,0.63201 0.147815,-0.160139 -0.418367,-0.682747 -0.566182,-0.522608 v 0 C 61.97587,93.402221 61.424891,93.185913 60.863191,92.998178 60.230499,92.787147 59.599134,92.573194 58.957808,92.389332 58.569386,92.277977 58.02608,92.125688 57.623771,92.06598 57.413596,92.03479 57.200273,92.03086 56.988525,92.0133 c -0.194956,0.02574 -0.394767,0.02694 -0.58487,0.07726 -0.17744,0.04697 -0.341789,0.134586 -0.508177,0.212093 -0.660016,0.307446 -1.237171,0.766548 -1.920962,1.026895 -0.1568,0.03744 -0.310761,0.0899 -0.470403,0.112311 -0.338873,0.04757 -0.61477,0.0089 -0.953357,-0.0093 -0.501574,-0.02696 -1.004398,-0.04359 -1.505712,0.0019 -0.354471,0.04914 -0.648912,0.06948 -0.987528,0.19961 -0.869027,0.333957 -1.425467,1.103598 -1.979674,1.807244 -0.731512,0.920483 -1.45823,1.845281 -2.20712,2.751625 -0.131497,0.183004 0.515528,0.647917 0.647026,0.464912 z" /><path
       style="opacity:1;fill:#f9e8cc;fill-opacity:1;stroke:#ffd487;stroke-width:2;stroke-linecap:round;stroke-linejoin:round;stroke-dasharray:none;stroke-opacity:1"
       id="path80"
       d="m 78.520948,87.195858 c -0.193786,0.454194 -0.496038,0.860163 -0.613399,1.346607 -0.03425,0.141976 -0.04305,0.288907 -0.06458,0.433359 0.0066,0.160168 -0.0029,0.321807 0.01968,0.480504 0.08051,0.564608 0.314383,1.106334 0.505973,1.638504 0.245483,0.681858 0.155962,0.402889 0.337558,1.093552 0.203745,1.161796 -0.188015,1.960023 -0.815763,2.89841 -0.404307,0.586655 -0.97908,1.070557 -1.256326,1.741786 -0.177189,0.428982 -0.155342,0.608587 -0.193149,1.067345 0.0071,0.189341 0.0079,0.379026 0.0213,0.568024 0.05935,0.83539 0.06425,0.266501 0.08879,1.080555 0.01476,0.489866 -0.01654,0.975826 -0.05575,1.463586 -0.01953,0.14989 -0.03906,0.29978 -0.05859,0.44967 -0.117112,0.18563 0.539168,0.59969 0.656281,0.41406 v 0 c 0.02,-0.15111 0.04003,-0.30223 0.06004,-0.45334 0.03982,-0.49122 0.07224,-0.98093 0.05855,-1.474315 -0.02183,-0.786961 -0.02826,-0.280649 -0.09093,-1.080497 -0.01461,-0.186243 -0.01696,-0.37324 -0.02543,-0.559861 0.03149,-0.441233 0.0088,-0.625623 0.176516,-1.0389 0.27228,-0.670742 0.850541,-1.151387 1.251699,-1.736778 0.639765,-0.951939 1.043834,-1.772891 0.849379,-2.954133 -0.174739,-0.684504 -0.09205,-0.428909 -0.334468,-1.100535 -0.18964,-0.525399 -0.425953,-1.059201 -0.512974,-1.615358 -0.02408,-0.15395 -0.01701,-0.311184 -0.02553,-0.466778 0.01923,-0.140123 0.0254,-0.282673 0.0577,-0.42037 0.114276,-0.487013 0.422058,-0.892103 0.62997,-1.338736 0.123423,-0.188534 -0.543147,-0.624895 -0.66657,-0.436361 z" /><path
       style="opacity:1;fill:#f9e8cc;fill-opacity:1;stroke:#ffd487;stroke-width:2;stroke-linecap:round;stroke-linejoin:round;stroke-dasharray:none;stroke-opacity:1"
       id="path81"
       d="m 31.015363,86.107338 c -0.412904,0.189323 -0.72132,0.541909 -1.015719,0.876205 -0.43288,0.506547 -0.845165,1.068827 -0.859731,1.763755 -0.003,0.14301 0.02219,0.285218 0.03329,0.427826 0.182183,0.958627 0.677866,1.807863 1.168883,2.636607 0.338066,0.566899 0.670736,1.139246 0.906818,1.757757 0.196502,0.514813 0.206274,0.613481 0.344907,1.147468 0.195961,0.710624 0.129245,1.458984 0.282157,2.175841 0.0997,0.467392 0.169996,0.571537 0.358347,1.011142 0.22864,0.464151 0.490421,0.910657 0.746901,1.359633 -0.104519,0.19235 0.575537,0.561877 0.680056,0.369531 v 0 c -0.257258,-0.447644 -0.519208,-0.892996 -0.753175,-1.353508 -0.188633,-0.423836 -0.26607,-0.540388 -0.367492,-0.992958 -0.161052,-0.718658 -0.0885,-1.470752 -0.282038,-2.184873 -0.04942,-0.19612 -0.09164,-0.394198 -0.148263,-0.588359 -0.242262,-0.830737 -0.631836,-1.599679 -1.08669,-2.332773 -0.489781,-0.820412 -0.98765,-1.657636 -1.183761,-2.604971 -0.01352,-0.137885 -0.04082,-0.275109 -0.04057,-0.413655 0.0012,-0.681699 0.409471,-1.230144 0.835332,-1.722792 0.287469,-0.320236 0.590983,-0.67092 1.001974,-0.831856 0.141427,-0.175712 -0.479805,-0.675732 -0.621232,-0.50002 z" /><path
       style="opacity:1;fill:#f9e8cc;fill-opacity:1;stroke:#ffd487;stroke-width:2;stroke-linecap:round;stroke-linejoin:round;stroke-dasharray:none;stroke-opacity:1"
       id="path82"
       d="m 46.456605,56.261066 c 0.284829,0.502415 0.603795,0.987713 0.918586,1.472443 0.58429,0.892276 1.185524,1.772351 1.65689,2.730794 0.290472,0.611084 0.364135,1.260824 0.399261,1.925616 -0.113644,0.187566 0.5495,0.58936 0.663144,0.401794 v 0 c -0.03237,-0.673367 -0.0989,-1.332953 -0.387252,-1.954644 -0.07924,-0.164388 -0.152202,-0.331949 -0.237713,-0.493162 -0.414102,-0.780709 -0.946864,-1.492081 -1.409504,-2.243183 -0.310083,-0.477842 -0.608954,-0.962498 -0.910875,-1.445339 0.111529,-0.195879 -0.581007,-0.590198 -0.692537,-0.394319 z" /><path
       style="opacity:1;fill:#f9e8cc;fill-opacity:1;stroke:#ffd487;stroke-width:2;stroke-linecap:round;stroke-linejoin:round;stroke-dasharray:none;stroke-opacity:1"
       id="path83"
       d="m 64.319917,50.911712 c -0.426834,0.33687 -0.934879,0.57091 -1.342602,0.932529 -0.07852,0.06965 -0.14492,0.151871 -0.217381,0.227807 -0.04534,0.08203 -0.102574,0.158541 -0.136017,0.246099 -0.192289,0.503423 0.158173,1.035606 0.395996,1.455423 0.252257,0.443373 0.53679,0.873344 0.721006,1.351695 0.136784,0.35519 0.133379,0.411292 0.211947,0.781706 0.05457,0.545174 0.04222,0.269373 0.03533,0.827485 -0.115252,0.187301 0.546955,0.594775 0.662207,0.407474 v 0 c 0.01378,-0.567343 0.02294,-0.286798 -0.02569,-0.841687 -0.07446,-0.376923 -0.07017,-0.433607 -0.203615,-0.795483 -0.177774,-0.482092 -0.460126,-0.914805 -0.714502,-1.35812 -0.194477,-0.334478 -0.474446,-0.738653 -0.477766,-1.144042 -0.0019,-0.211926 0.07039,-0.291177 0.16628,-0.471456 0.06938,-0.07308 0.132733,-0.152381 0.208124,-0.219239 0.406918,-0.360865 0.913212,-0.597175 1.348949,-0.919012 0.136096,-0.178831 -0.496173,-0.660011 -0.63227,-0.481179 z" /><path
       style="opacity:1;fill:#f9e8cc;fill-opacity:1;stroke:#ffd487;stroke-width:2;stroke-linecap:round;stroke-linejoin:round;stroke-dasharray:none;stroke-opacity:1"
       id="path84"
       d="m 75.412301,69.154505 c 0.245911,0.17217 0.491826,0.34434 0.737737,0.516509 0.04288,0.02925 0.171024,0.117684 0.128633,0.08774 -0.146714,-0.103645 -0.294087,-0.206357 -0.441614,-0.30884 -0.07999,-0.05557 0.159674,0.111561 0.238991,0.168076 0.31877,0.227132 0.193386,0.131487 0.498295,0.394584 0.558136,0.59853 0.612928,1.157671 0.564102,1.938425 -0.04911,0.680648 -0.237003,1.335349 -0.44509,1.981223 -0.189071,0.700358 0.09576,1.178179 0.494014,1.727716 0.218969,0.281078 0.469815,0.534694 0.714388,0.793002 -0.100825,0.196588 0.594217,0.553053 0.695042,0.356467 v 0 c -0.243877,-0.256775 -0.494961,-0.507679 -0.7175,-0.783711 -0.392509,-0.523722 -0.705072,-0.981202 -0.531804,-1.664055 0.209415,-0.65188 0.402989,-1.311227 0.454213,-1.998091 0.05602,-0.790091 0.01751,-1.374899 -0.527807,-1.999969 -0.479933,-0.43388 -1.036783,-0.784829 -1.565323,-1.154221 -0.04312,-0.03014 -0.172979,-0.119865 -0.130058,-0.08944 0.182366,0.129286 0.365598,0.257345 0.548399,0.386017 0.0994,-0.202126 -0.615217,-0.553562 -0.714618,-0.351436 z" /><path
       style="opacity:1;fill:#f9e8cc;fill-opacity:1;stroke:#ffd487;stroke-width:2;stroke-linecap:round;stroke-linejoin:round;stroke-dasharray:none;stroke-opacity:1"
       id="path85"
       d="m 35.810047,69.438067 c -0.159457,0.08527 -0.292562,0.204362 -0.423031,0.327427 -0.03891,0.0367 -0.08729,0.0653 -0.117138,0.109689 -0.03685,0.05481 -0.05256,0.121181 -0.07884,0.181774 -0.0072,0.07961 -0.02513,0.158977 -0.02155,0.238831 0.02193,0.489971 0.293402,1.080863 0.464376,1.539939 0.2089,0.65968 0.0657,1.343361 -0.285105,1.931677 -0.08677,0.145527 -0.198036,0.274977 -0.297054,0.412465 -0.113465,0.130902 -0.22693,0.261808 -0.340395,0.39271 -0.127147,0.17766 0.500974,0.627192 0.628121,0.449533 v 0 c 0.114892,-0.132676 0.229784,-0.265351 0.344677,-0.398026 0.102147,-0.140902 0.216597,-0.273656 0.30644,-0.422704 0.36096,-0.598818 0.523248,-1.302224 0.324813,-1.980835 -0.174725,-0.466566 -0.432649,-1.00938 -0.476852,-1.50844 -0.0064,-0.07178 0.0065,-0.143967 0.0097,-0.21595 0.02015,-0.05119 0.02963,-0.107995 0.06045,-0.153564 0.09197,-0.136004 0.373877,-0.328499 0.525232,-0.408265 0.140364,-0.176451 -0.483483,-0.672711 -0.623847,-0.496261 z" /></g></svg>
